<svg xmlns="http://www.w3.org/2000/svg" xmlns:xlink="http://www.w3.org/1999/xlink" viewBox="0 0 1400 3200" style="background:#f8f9fa">
  <!-- Enhanced Checkout Flow Diagram v4.9.0 - 2026-03-11 -->
  
  <!-- Styles -->
  <defs>
    <style>
      .title { font: bold 32px 'Arial', sans-serif; fill: #1a1a1a; }
      .subtitle { font: bold 20px 'Arial', sans-serif; fill: #333; }
      .heading { font: bold 18px 'Arial', sans-serif; fill: #444; }
      .text { font: 14px 'Arial', sans-serif; fill: #555; }
      .text-small { font: 12px 'Arial', sans-serif; fill: #666; }
      .note { font: italic 13px 'Arial', sans-serif; fill: #888; }
      .version { font: 11px 'Arial', sans-serif; fill: #999; }
      .badge { font: bold 11px 'Arial', sans-serif; fill: white; }
      
      /* Boxes */
      .box { fill: white; stroke: #ccc; stroke-width: 2; }
      .highlight { fill: #e3f2fd; stroke: #1976d2; stroke-width: 2; }
      .success { fill: #e8f5e9; stroke: #4caf50; stroke-width: 2; }
      .warning { fill: #fff3e0; stroke: #ff9800; stroke-width: 2; }
      .error { fill: #ffebee; stroke: #f44336; stroke-width: 2; }
      .decision { fill: #fff9c4; stroke: #fbc02d; stroke-width: 2; }
      .api { fill: #f3e5f5; stroke: #9c27b0; stroke-width: 2; }
      .yalidine { fill: #fce4ec; stroke: #e91e63; stroke-width: 2; }
      .pickup { fill: #e1f5fe; stroke: #03a9f4; stroke-width: 2; }
      .database { fill: #f1f8e9; stroke: #8bc34a; stroke-width: 2; }
      .admin { fill: #ffe0b2; stroke: #ff5722; stroke-width: 2; }
      .webhook { fill: #e0f2f1; stroke: #009688; stroke-width: 2; }
      
      /* Arrows */
      .arrow { fill: none; stroke: #666; stroke-width: 2; marker-end: url(#arrowhead); }
      .arrow-success { fill: none; stroke: #4caf50; stroke-width: 2; marker-end: url(#arrowhead-success); }
      .arrow-error { fill: none; stroke: #f44336; stroke-width: 2; marker-end: url(#arrowhead-error); }
      .arrow-dotted { fill: none; stroke: #999; stroke-width: 2; stroke-dasharray: 5,5; marker-end: url(#arrowhead); }
      
      /* Badges */
      .badge-new { fill: #4caf50; }
      .badge-fixed { fill: #2196f3; }
      .badge-enhanced { fill: #ff9800; }
      .badge-api { fill: #9c27b0; }
      
      /* Logos */
      .logo-box { fill: white; stroke: #ddd; stroke-width: 1; }
      
      .validation { fill: #e8eaf6; stroke: #5c6bc0; stroke-width: 2; }
      .error-path { fill: none; stroke: #f44336; stroke-width: 2; stroke-dasharray: 8,4; marker-end: url(#arrowhead-error); }
    </style>
    
    <!-- Gradients (moved outside <style> — valid SVG) -->
    <linearGradient id="headerGradient" x1="0%" y1="0%" x2="100%" y2="0%">
      <stop offset="0%" style="stop-color:#1976d2;stop-opacity:1" />
      <stop offset="100%" style="stop-color:#1e88e5;stop-opacity:1" />
    </linearGradient>
    <linearGradient id="successGradient" x1="0%" y1="0%" x2="100%" y2="0%">
      <stop offset="0%" style="stop-color:#4caf50;stop-opacity:1" />
      <stop offset="100%" style="stop-color:#66bb6a;stop-opacity:1" />
    </linearGradient>
    
    <!-- Arrow markers -->
    <marker id="arrowhead" markerWidth="10" markerHeight="10" refX="9" refY="3" orient="auto">
      <polygon points="0 0, 10 3, 0 6" fill="#666" />
    </marker>
    <marker id="arrowhead-success" markerWidth="10" markerHeight="10" refX="9" refY="3" orient="auto">
      <polygon points="0 0, 10 3, 0 6" fill="#4caf50" />
    </marker>
    <marker id="arrowhead-error" markerWidth="10" markerHeight="10" refX="9" refY="3" orient="auto">
      <polygon points="0 0, 10 3, 0 6" fill="#f44336" />
    </marker>
  </defs>
  
  <!-- Header -->
  <rect width="1400" height="100" fill="url(#headerGradient)" />
  <text x="700" y="45" class="title" text-anchor="middle" fill="white">Magento 2 Checkout Flow - Enhanced</text>
  <text x="700" y="75" class="subtitle" text-anchor="middle" fill="white">Yalidine Express + Store Pickup Integration (v4.9.0)</text>
  
  <!-- Version Badge -->
  <rect x="1200" y="15" width="180" height="70" rx="8" class="box" />
  <text x="1290" y="40" class="heading" text-anchor="middle">Build Date</text>
  <text x="1290" y="62" class="text" text-anchor="middle">2026-03-11</text>
  <text x="1290" y="78" class="text-small" text-anchor="middle">Production Ready ✅</text>
  
  <!-- Status Badges -->
  <g transform="translate(20, 15)">
    <rect width="180" height="28" rx="14" class="badge-enhanced" />
    <text x="90" y="19" class="badge" text-anchor="middle">v4.9.0 QUOTE SYNC</text>
  </g>
  <g transform="translate(20, 48)">
    <rect width="180" height="28" rx="14" class="badge-new" />
    <text x="90" y="19" class="badge" text-anchor="middle">BODY MODE CLASSES</text>
  </g>
  
  <!-- Main Flow -->
  <g transform="translate(0, 120)">
    
    <!-- STEP 1: Cart & Source Selection -->
    <g id="step1">
      <rect x="50" y="20" width="1300" height="200" rx="10" class="highlight" />
      <text x="700" y="50" class="subtitle" text-anchor="middle">① CART &amp; VALIDATION (NEW: Source Selector Styling)</text>
      
      <!-- Cart Box -->
      <g transform="translate(100, 70)">
        <rect width="400" height="120" rx="8" class="box" />
        <text x="200" y="30" class="heading" text-anchor="middle">🛒 Shopping Cart</text>
        <text x="20" y="55" class="text">• Products added to cart</text>
        <text x="20" y="75" class="text">• Cart source selector visible</text>
        <text x="20" y="95" class="text">• User clicks "Procéder au paiement"</text>
        
        <!-- NEW badge -->
        <rect x="320" y="10" width="65" height="20" rx="10" class="badge-fixed" />
        <text x="352" y="24" class="badge" text-anchor="middle">STYLED</text>
      </g>
      
      <!-- Source Selector Box -->
      <g transform="translate(550, 70)">
        <rect width="700" height="120" rx="8" class="success" />
        <text x="350" y="30" class="heading" text-anchor="middle">📦 MSI Source Selector (NEW STYLING)</text>
        <text x="20" y="55" class="text">✅ Gradient background (#667eea → #764ba2)</text>
        <text x="20" y="75" class="text">✅ Selected source displayed in field</text>
        <text x="20" y="95" class="text">✅ Smooth transitions, hover effects, loading spinner</text>
        <text x="360" y="55" class="text">• 27 active sources available</text>
        <text x="360" y="75" class="text">• Auto-selects based on location</text>
        <text x="360" y="95" class="text">• Syncs with localStorage &amp; AJAX</text>
        
        <!-- FIXED badge -->
        <rect x="610" y="10" width="70" height="20" rx="10" class="badge-fixed" />
        <text x="645" y="24" class="badge" text-anchor="middle">FIXED ✓</text>
      </g>
    </g>
    
    <!-- Arrow to Step 2 -->
    <line x1="700" y1="240" x2="700" y2="280" class="arrow" />
    
    <!-- STEP 2: Fulfillment Method Selection -->
    <g id="step2" transform="translate(0, 280)">
      <rect x="50" y="0" width="1300" height="280" rx="10" class="highlight" />
      <text x="700" y="30" class="subtitle" text-anchor="middle">② CHOISISSEZ LE MODE DE LIVRAISON (Sort Order: -2000)</text>
      <text x="700" y="50" class="note" text-anchor="middle">First block user sees - Top position - Default: Store Pickup ✅</text>
      
      <!-- Yalidine Card -->
      <g transform="translate(150, 70)">
        <rect width="450" height="160" rx="8" class="yalidine" />
        <rect x="10" y="10" width="430" height="50" rx="8" class="logo-box" />
        <text x="225" y="40" class="heading" text-anchor="middle">🚚 Yalidine Logo</text>
        
        <text x="225" y="90" class="heading" text-anchor="middle">Livraison Yalidine Express</text>
        <text x="225" y="110" class="text" text-anchor="middle">Livraison à domicile / Stop Desk</text>
        <text x="225" y="135" class="text-small" text-anchor="middle">☐ Radio Button (Click to activate)</text>
        <text x="225" y="155" class="text-small" text-anchor="middle">4 delivery methods available</text>
      </g>
      
      <!-- Pickup Card -->
      <g transform="translate(750, 70)">
        <rect width="450" height="160" rx="8" class="pickup" />
        <rect x="10" y="10" width="430" height="50" rx="8" class="logo-box" />
        <text x="225" y="40" class="heading" text-anchor="middle">🏪 Techno Logo</text>
        
        <text x="225" y="90" class="heading" text-anchor="middle">Retrait en Magasin</text>
        <text x="225" y="110" class="text" text-anchor="middle">Retrait gratuit dans nos magasins</text>
        <text x="225" y="135" class="text-small" text-anchor="middle" font-weight="bold">☑ DEFAULT SELECTED</text>
        
        <!-- GRATUIT Badge -->
        <rect x="150" y="145" width="150" height="25" rx="12" class="badge-new" />
        <text x="225" y="162" class="badge" text-anchor="middle" font-size="14">GRATUIT (0 DZD)</text>
      </g>
      
      <!-- Status boxes -->
      <g transform="translate(100, 245)">
        <rect width="230" height="22" rx="11" fill="#4caf50" />
        <text x="115" y="16" class="badge" text-anchor="middle">✅ FORMS SHOWING CORRECTLY</text>
      </g>
      <g transform="translate(360, 245)">
        <rect width="250" height="22" rx="11" fill="#2196f3" />
        <text x="125" y="16" class="badge" text-anchor="middle">✅ MODULE CONFLICTS RESOLVED</text>
      </g>
      <g transform="translate(640, 245)">
        <rect width="220" height="22" rx="11" fill="#ff9800" />
        <text x="110" y="16" class="badge" text-anchor="middle">✅ DEBUG LOGGING ADDED</text>
      </g>
      <g transform="translate(890, 245)">
        <rect width="190" height="22" rx="11" fill="#9c27b0" />
        <text x="95" y="16" class="badge" text-anchor="middle">✅ 9/9 TESTS PASSED</text>
      </g>
    </g>
    
    <!-- Branching Arrows -->
    <g transform="translate(0, 560)">
      <line x1="700" y1="0" x2="700" y2="40" class="arrow" />
      <line x1="700" y1="40" x2="325" y2="100" class="arrow" />
      <line x1="700" y1="40" x2="1075" y2="100" class="arrow" />
      
      <text x="450" y="75" class="text" font-style="italic">User clicks Yalidine →</text>
      <text x="850" y="75" class="text" font-style="italic">User clicks Pickup →</text>
    </g>
    
    <!-- STEP 3A: Yalidine Address Form -->
    <g id="step3a" transform="translate(0, 660)">
      <rect x="50" y="0" width="600" height="500" rx="10" class="yalidine" />
      <text x="350" y="30" class="subtitle" text-anchor="middle">③A ADRESSE DE LIVRAISON</text>
      <text x="350" y="50" class="note" text-anchor="middle">(NEW: Form Visibility Fixed)</text>
      
      <!-- Form Fields -->
      <g transform="translate(80, 70)">
        <text x="0" y="20" class="text">ℹ️ Veuillez saisir votre adresse complète</text>
        
        <!-- Field boxes -->
        <rect y="40" width="250" height="32" rx="4" class="box" />
        <text x="10" y="60" class="text">Prénom * [____________]</text>
        
        <rect x="280" y="40" width="250" height="32" rx="4" class="box" />
        <text x="290" y="60" class="text">Nom * [____________]</text>
        
        <rect y="85" width="540" height="32" rx="4" class="box" />
        <text x="10" y="105" class="text">Adresse * [____________]</text>
        
        <rect y="130" width="250" height="32" rx="4" class="box" />
        <text x="10" y="150" class="text">Téléphone * [____________]</text>
        
        <!-- Wilaya Dropdown -->
        <rect y="185" width="540" height="80" rx="4" class="database" />
        <text x="10" y="205" class="heading">Wilaya * [▼ Sélectionner...]</text>
        <text x="20" y="225" class="text-small">├─ Adrar (01)</text>
        <text x="20" y="241" class="text-small">├─ Alger (16) ✓</text>
        <text x="20" y="257" class="text-small">├─ ... (58 total from DB)</text>
        
        <!-- Commune Dropdown -->
        <rect y="280" width="540" height="95" rx="4" class="database" />
        <text x="10" y="300" class="heading">Commune * [▼ Sélectionner...]</text>
        <text x="10" y="318" class="text-small">(Loads when wilaya selected)</text>
        <text x="20" y="338" class="text-small">├─ Alger Centre (1601)</text>
        <text x="20" y="354" class="text-small">├─ Bab Ezzouar (1621)</text>
        <text x="20" y="370" class="text-small">├─ ... (~1,100 total from DB)</text>
        
        <!-- NO Duplicate Fields Note -->
        <rect y="390" width="540" height="50" rx="4" class="success" />
        <text x="270" y="410" class="heading" text-anchor="middle">✅ NO DUPLICATE FIELDS</text>
        <text x="270" y="428" class="text" text-anchor="middle">No postcode, no duplicate wilaya/region</text>
      </g>
      
      <!-- Fixed Badge -->
      <rect x="470" y="5" width="110" height="25" rx="12" class="badge-fixed" />
      <text x="525" y="22" class="badge" text-anchor="middle">VISIBILITY FIXED</text>
    </g>
    
    <!-- STEP 3B: Store Pickup -->
    <g id="step3b" transform="translate(700, 660)">
      <rect x="0" y="0" width="650" height="500" rx="10" class="pickup" />
      <text x="325" y="30" class="subtitle" text-anchor="middle">③B CHOISISSEZ VOTRE MAGASIN</text>
      <text x="325" y="50" class="note" text-anchor="middle">(NEW: Amasty Visibility Fixed)</text>
      
      <!-- Amasty Picker -->
      <g transform="translate(30, 70)">
        <text x="0" y="20" class="text">🏪 Sélectionnez le magasin [GRATUIT]</text>
        
        <!-- Store Locator -->
        <rect y="40" width="590" height="350" rx="4" class="box" />
        <text x="295" y="65" class="heading" text-anchor="middle">Amasty Store Locator</text>
        
        <!-- Store 1 -->
        <g transform="translate(20, 80)">
          <rect width="550" height="70" rx="4" class="highlight" />
          <text x="15" y="25" class="text">📍 Magasin Centre-Ville Alger</text>
          <text x="15" y="43" class="text-small">123 Rue Didouche Mourad, Alger</text>
          <text x="15" y="58" class="text-small">[●] Sélectionner ce magasin</text>
        </g>
        
        <!-- Store 2 -->
        <g transform="translate(20, 160)">
          <rect width="550" height="70" rx="4" class="box" />
          <text x="15" y="25" class="text">📍 Magasin Bab Ezzouar</text>
          <text x="15" y="43" class="text-small">456 Avenue Mohamed Boudiaf, Alger</text>
          <text x="15" y="58" class="text-small">[○] Sélectionner ce magasin</text>
        </g>
        
        <!-- Store 3 -->
        <g transform="translate(20, 240)">
          <rect width="550" height="70" rx="4" class="box" />
          <text x="15" y="25" class="text">📍 Magasin Oran Centre</text>
          <text x="15" y="43" class="text-small">789 Boulevard de la Révolution, Oran</text>
          <text x="15" y="58" class="text-small">[○] Sélectionner ce magasin</text>
        </g>
        
        <!-- Features Note -->
        <g transform="translate(0, 330)">
          <text x="295" y="0" class="text" text-anchor="middle" font-weight="bold">✅ ALL FRENCH TEXT</text>
          <text x="295" y="18" class="text" text-anchor="middle" font-weight="bold">✅ NO ADDRESS FIELDS</text>
          <text x="295" y="36" class="text" text-anchor="middle" font-weight="bold">Frais: 0 DZD</text>
        </g>
      </g>
      
      <!-- Fixed Badge -->
      <rect x="490" y="5" width="140" height="25" rx="12" class="badge-fixed" />
      <text x="560" y="22" class="badge" text-anchor="middle">AMASTY FIX APPLIED</text>
    </g>
    
    <!-- STEP 3.5: Address Data Flow Mapping (NEW in v4.9.0) -->
    <g id="step3-5" transform="translate(50, 1170)">
      <rect x="0" y="0" width="1300" height="140" rx="10" class="validation" />
      <text x="650" y="28" class="subtitle" text-anchor="middle">④ ADDRESS DATA FLOW &amp; VALIDATION (v4.9.0)</text>
      
      <g transform="translate(30, 45)">
        <rect width="380" height="80" rx="6" class="database" />
        <text x="190" y="22" class="heading" text-anchor="middle">🗂️ Field Mapping (Quote Sync)</text>
        <text x="15" y="42" class="text-small">Wilaya dropdown → region_id (1-58)</text>
        <text x="15" y="57" class="text-small">Commune dropdown → city + commune_id</text>
        <text x="15" y="72" class="text-small">Auto postcode: wilaya_code + "000"</text>
      </g>
      
      <g transform="translate(440, 45)">
        <rect width="400" height="80" rx="6" class="api" />
        <text x="200" y="22" class="heading" text-anchor="middle">🔄 Data Source Priority</text>
        <text x="15" y="42" class="text-small">1. DB: /yalidinecarrier/ajax/wilayacommune (cached)</text>
        <text x="15" y="57" class="text-small">2. JSON: communes.json / wilayas.json (fallback)</text>
        <text x="15" y="72" class="text-small">3. Deduped AJAX + DocumentFragment rendering</text>
      </g>
      
      <g transform="translate(870, 45)">
        <rect width="400" height="80" rx="6" class="success" />
        <text x="200" y="22" class="heading" text-anchor="middle">✅ Validation Checkpoint</text>
        <text x="15" y="42" class="text-small">Required: firstname, lastname, phone, street</text>
        <text x="15" y="57" class="text-small">Required: wilaya (region_id), commune (city)</text>
        <text x="15" y="72" class="text-small">Billing = Shipping shortcut available</text>
      </g>
    </g>
    
    <!-- Arrow to Fee Calculation -->
    <line x1="350" y1="1330" x2="350" y2="1360" class="arrow" />
    
    <!-- STEP 5: Yalidine Fee Calculation -->
    <g id="step4-yalidine" transform="translate(0, 1360)">
      <rect x="50" y="0" width="600" height="280" rx="10" class="api" />
      <text x="350" y="30" class="subtitle" text-anchor="middle">⑤A YALIDINE FEE API (Debounced + Cached)</text>
      
      <!-- API Call -->
      <g transform="translate(80, 60)">
        <rect width="540" height="90" rx="4" class="database" />
        <text x="10" y="25" class="heading">🔌 API Call</text>
        <text x="10" y="45" class="text">POST /yalidinecarrier/ajax/calculateFees</text>
        <text x="10" y="63" class="text-small">from_wilaya_id: 16 (Alger)</text>
        <text x="10" y="79" class="text-small">to_wilaya_id: 5 (Batna), to_commune_id: 501</text>
      </g>
      
      <!-- Response -->
      <g transform="translate(80, 165)">
        <rect width="540" height="95" rx="4" class="success" />
        <text x="10" y="25" class="heading">✅ Response (&lt;1 second)</text>
        <text x="10" y="45" class="text">Zone: 11</text>
        <text x="10" y="63" class="text">Express Home: 500,00 DA</text>
        <text x="10" y="81" class="text">Express Desk: 400,00 DA</text>
        
        <text x="280" y="45" class="text">Retour Fee: 250,00 DA</text>
        <text x="280" y="63" class="text">COD: 0.75%</text>
        <text x="280" y="81" class="text">Insurance: 0.75%</text>
      </g>
      
      <!-- API Badge -->
      <rect x="430" y="5" width="150" height="25" rx="12" class="badge-api" />
      <text x="505" y="22" class="badge" text-anchor="middle">✅ API TESTED</text>
    </g>
    
    <!-- Error Handling Branch (NEW in v4.9.0) -->
    <g transform="translate(50, 1560)">
      <rect x="0" y="0" width="600" height="70" rx="8" class="error" />
      <text x="300" y="22" class="heading" text-anchor="middle">⚠️ API Failure → Fallback Default Fees</text>
      <text x="300" y="42" class="text" text-anchor="middle">Zone-based pricing (500-1200 DA) | Retour: 250 DA</text>
      <text x="300" y="58" class="text-small" text-anchor="middle">User sees: "Les frais seront calculés lors de la confirmation"</text>
    </g>
    <line x1="350" y1="1640" x2="350" y2="1560" class="error-path" />
    
    <!-- STEP 5B: Pickup (No API) -->
    <g id="step4-pickup" transform="translate(700, 1360)">
      <rect x="0" y="0" width="650" height="280" rx="10" class="success" />
      <text x="325" y="30" class="subtitle" text-anchor="middle">⑤B STORE PICKUP (NO API CALL)</text>
      
      <g transform="translate(30, 80)">
        <rect width="590" height="140" rx="4" class="highlight" />
        <text x="295" y="30" class="heading" text-anchor="middle">✅ Instant Calculation</text>
        <text x="295" y="55" class="text" text-anchor="middle">No API call needed</text>
        <text x="295" y="75" class="text" text-anchor="middle">Shipping Cost: 0,00 DA</text>
        <text x="295" y="95" class="text" text-anchor="middle">Processing Time: &lt; 0.1s</text>
        <text x="295" y="115" class="text" text-anchor="middle" font-weight="bold">GRATUIT Badge Displayed</text>
      </g>
    </g>
    
    <!-- Convergence Arrow -->
    <g transform="translate(0, 1480)">
      <line x1="350" y1="0" x2="350" y2="40" class="arrow" />
      <line x1="1025" y1="0" x2="1025" y2="40" class="arrow" />
      <line x1="350" y1="40" x2="700" y2="80" class="arrow" />
      <line x1="1025" y1="40" x2="700" y2="80" class="arrow" />
    </g>
    
    <!-- STEP 5: Unified Checkout -->
    <g id="step5" transform="translate(0, 1580)">
      <rect x="50" y="0" width="1300" height="180" rx="10" class="highlight" />
      <text x="700" y="30" class="subtitle" text-anchor="middle">⑤ UNIFIED CHECKOUT (Payment &amp; Review)</text>
      
      <!-- Payment Methods -->
      <g transform="translate(100, 60)">
        <rect width="550" height="100" rx="8" class="box" />
        <text x="275" y="30" class="heading" text-anchor="middle">💳 MÉTHODE DE PAIEMENT</text>
        <text x="20" y="55" class="text">• Paiement à la livraison (Yalidine)</text>
        <text x="20" y="75" class="text">• Paiement au retrait en magasin (Pickup)</text>
      </g>
      
      <!-- Order Review -->
      <g transform="translate(700, 60)">
        <rect width="550" height="100" rx="8" class="box" />
        <text x="275" y="30" class="heading" text-anchor="middle">📄 RÉCAPITULATIF COMMANDE</text>
        <text x="20" y="55" class="text">• Summary items &amp; quantities</text>
        <text x="20" y="75" class="text">• Total avec frais de livraison</text>
      </g>
    </g>
    
    <!-- Arrow -->
    <line x1="700" y1="1780" x2="700" y2="1820" class="arrow" />
    
    <!-- STEP 6: Order Placed -->
    <g id="step6" transform="translate(0, 1820)">
      <rect x="50" y="0" width="1300" height="120" rx="10" class="success" />
      <text x="700" y="35" class="subtitle" text-anchor="middle">⑥ ✅ COMMANDE CONFIRMÉE</text>
      
      <g transform="translate(150, 55)">
        <text x="0" y="20" class="text">✅ Order #12345 created</text>
        <text x="0" y="40" class="text">✅ Confirmation email sent</text>
        <text x="0" y="60" class="text">✅ Customer notified</text>
      </g>
      
      <g transform="translate(750, 55)">
        <text x="0" y="20" class="text">✅ Payment recorded</text>
        <text x="0" y="40" class="text">✅ Inventory reserved</text>
        <text x="0" y="60" class="text">✅ Post-order processing starts</text>
      </g>
    </g>
    
    <!-- Branching for Post-Order -->
    <g transform="translate(0, 1960)">
      <line x1="700" y1="0" x2="700" y2="40" class="arrow-success" />
      <line x1="700" y1="40" x2="325" y2="100" class="arrow-success" />
      <line x1="700" y1="40" x2="1075" y2="100" class="arrow-success" />
      
      <text x="400" y="75" class="text" font-style="italic" fill="#4caf50">If Yalidine →</text>
      <text x="900" y="75" class="text" font-style="italic" fill="#03a9f4">If Pickup →</text>
    </g>
    
    <!-- STEP 7A: Yalidine Parcel Creation -->
    <g id="step7a" transform="translate(0, 2060)">
      <rect x="50" y="0" width="600" height="320" rx="10" class="webhook" />
      <text x="350" y="30" class="subtitle" text-anchor="middle">⑦A YALIDINE PARCEL CREATION</text>
      
      <!-- Observer -->
      <g transform="translate(80, 60)">
        <rect width="540" height="70" rx="4" class="api" />
        <text x="10" y="25" class="heading">⚡ OrderPlaceAfter Observer</text>
        <text x="10" y="43" class="text">Triggered automatically on order save</text>
        <text x="10" y="59" class="text">Calls Yalidine Parcel API</text>
      </g>
      
      <!-- Database Record -->
      <g transform="translate(80, 145)">
        <rect width="540" height="155" rx="4" class="database" />
        <text x="10" y="25" class="heading">💾 Database: mab_yalidine_parcel</text>
        <text x="10" y="45" class="text-small">entity_id: 2345</text>
        <text x="10" y="61" class="text-small">tracking: yal-1234567890123</text>
        <text x="10" y="77" class="text-small">order_id: 12345 | order_increment_id: 000012345</text>
        <text x="10" y="93" class="text-small">source_code: annaba_city | account_id: 3</text>
        <text x="10" y="109" class="text-small">from_wilaya: 23 | to_wilaya: 5 | to_commune: 501</text>
        <text x="10" y="125" class="text-small">delivery_fee: 500.00 | status: pending</text>
        <text x="10" y="141" class="text-small">created_at: 2026-03-10 20:45:12</text>
      </g>
      
      <!-- Badge -->
      <rect x="460" y="5" width="130" height="25" rx="12" class="badge-new" />
      <text x="525" y="22" class="badge" text-anchor="middle">✅ AUTO CREATE</text>
    </g>
    
    <!-- STEP 7B: Store Pickup (No Parcel) -->
    <g id="step7b" transform="translate(700, 2060)">
      <rect x="0" y="0" width="650" height="320" rx="10" class="pickup" />
      <text x="325" y="30" class="subtitle" text-anchor="middle">⑦B STORE PICKUP (NO PARCEL)</text>
      
      <g transform="translate(30, 80)">
        <rect width="590" height="210" rx="4" class="highlight" />
        <text x="295" y="30" class="heading" text-anchor="middle">✅ Order Processing</text>
        <text x="20" y="60" class="text">• No parcel creation (not needed)</text>
        <text x="20" y="80" class="text">• Pickup location stored in order</text>
        <text x="20" y="100" class="text">• Notification sent to selected store</text>
        <text x="20" y="120" class="text">• Staff prepares order for pickup</text>
        <text x="20" y="140" class="text">• Customer receives pickup notification</text>
        <text x="20" y="160" class="text">• QR code/confirmation number sent</text>
        <text x="20" y="180" class="text" font-weight="bold">• Shipping Cost: 0,00 DA ✅</text>
      </g>
    </g>
    
    <!-- STEP 8: Admin Management -->
    <g id="step8" transform="translate(0, 2400)">
      <rect x="50" y="0" width="1300" height="240" rx="10" class="admin" />
      <text x="700" y="35" class="subtitle" text-anchor="middle">⑧ ADMIN ORDER MANAGEMENT (Next Phase)</text>
      
      <!-- Admin Grid -->
      <g transform="translate(100, 60)">
        <rect width="1100" height="160" rx="8" class="box" />
        <text x="550" y="25" class="heading" text-anchor="middle">📊 Yalidine Parcels Admin Grid</text>
        
        <!-- Table Header -->
        <g transform="translate(20, 40)">
          <rect width="1060" height="30" rx="4" class="highlight" />
          <text x="50" y="20" class="text-small" font-weight="bold">ID</text>
          <text x="150" y="20" class="text-small" font-weight="bold">Tracking</text>
          <text x="320" y="20" class="text-small" font-weight="bold">Order #</text>
          <text x="440" y="20" class="text-small" font-weight="bold">Source</text>
          <text x="580" y="20" class="text-small" font-weight="bold">Destination</text>
          <text x="750" y="20" class="text-small" font-weight="bold">Fee</text>
          <text x="850" y="20" class="text-small" font-weight="bold">Status</text>
          <text x="970" y="20" class="text-small" font-weight="bold">Actions</text>
        </g>
        
        <!-- Sample Row -->
        <g transform="translate(20, 75)">
          <rect width="1060" height="28" rx="4" class="box" />
          <text x="50" y="18" class="text-small">2345</text>
          <text x="150" y="18" class="text-small">yal-123...890</text>
          <text x="320" y="18" class="text-small">000012345</text>
          <text x="440" y="18" class="text-small">Annaba</text>
          <text x="580" y="18" class="text-small">Batna (05)</text>
          <text x="750" y="18" class="text-small">500 DA</text>
          <text x="850" y="18" class="text-small">Pending</text>
          <text x="970" y="18" class="text-small">[Track] [Edit]</text>
        </g>
        
        <!-- Features -->
        <g transform="translate(20, 115)">
        <text x="0" y="15" class="text">Features: Track parcels | Update status | Sync with Yalidine | View history | Export reports</text>
          <text x="0" y="32" class="text" font-style="italic">🔧 Next: Source account CRUD | Dealer notifications | Parcel grid admin</text>
        </g>
      </g>
    </g>
    
    <!-- STEP 9: Webhook & Notifications -->
    <g id="step9" transform="translate(0, 2660)">
      <rect x="50" y="0" width="1300" height="180" rx="10" class="webhook" />
      <text x="700" y="35" class="subtitle" text-anchor="middle">⑨ WEBHOOK INTEGRATION &amp; NOTIFICATIONS (Future)</text>
      
      <!-- Webhook -->
      <g transform="translate(100, 70)">
        <rect width="400" height="90" rx="8" class="api" />
        <text x="200" y="25" class="heading" text-anchor="middle">🔔 Yalidine Webhook</text>
        <text x="20" y="50" class="text-small">Endpoint: /yalidinecarrier/webhook/callback</text>
        <text x="20" y="66" class="text-small">Auth: X-API-TOKEN | Retry: 3x exponential</text>
        <text x="20" y="82" class="text-small">Status map: pending→shipped→delivered→returned</text>
      </g>
      
      <!-- Notifications -->
      <g transform="translate(550, 70)">
        <rect width="700" height="90" rx="8" class="box" />
        <text x="350" y="25" class="heading" text-anchor="middle">📧 Multi-Channel Notifications</text>
        <text x="20" y="50" class="text-small">• Customer: Email + SMS on status changes</text>
        <text x="20" y="66" class="text-small">• Admin: Dashboard alerts &amp; reports</text>
        <text x="20" y="82" class="text-small">• Dealer: Source-specific order notifications</text>
      </g>
    </g>
    
    <!-- Technical Specs -->
    <g id="specs" transform="translate(0, 2860)">
      <rect x="50" y="0" width="1300" height="260" rx="10" class="box" />
      <text x="700" y="35" class="subtitle" text-anchor="middle">🔧 TECHNICAL SPECIFICATIONS</text>
      
      <!-- Database -->
      <g transform="translate(100, 60)">
        <rect width="350" height="180" rx="8" class="database" />
        <text x="175" y="25" class="heading" text-anchor="middle">💾 Database Tables</text>
        <text x="20" y="50" class="text-small">• mab_yalidine_wilayas: 58 records</text>
        <text x="20" y="68" class="text-small">• mab_yalidine_communes: 1,100 records</text>
        <text x="20" y="86" class="text-small">• mab_yalidine_source_account: 25 active</text>
        <text x="20" y="104" class="text-small">  (27 total sources in MSI)</text>
        <text x="20" y="122" class="text-small">• mab_yalidine_parcel: Parcel tracking</text>
        <text x="20" y="140" class="text-small">• inventory_source: MSI sources</text>
        <text x="20" y="158" class="text-small">• sales_order: Order data</text>
      </g>
      
      <!-- APIs -->
      <g transform="translate(500, 60)">
        <rect width="350" height="180" rx="8" class="api" />
        <text x="175" y="25" class="heading" text-anchor="middle">🔌 API Endpoints (All ✅)</text>
        <text x="20" y="50" class="text-small">• /ajax/wilayacommune?action=wilayas</text>
        <text x="20" y="68" class="text-small">  Response: 56 wilayas &lt; 1s</text>
        <text x="20" y="86" class="text-small">• /ajax/wilayacommune?action=communes</text>
        <text x="20" y="104" class="text-small">  Response: Filtered by wilaya &lt; 1s</text>
        <text x="20" y="122" class="text-small">• /ajax/calculateFees</text>
        <text x="20" y="140" class="text-small">  Response: Fees with 24h cache &lt; 1s</text>
        <text x="20" y="158" class="text-small">✅ All endpoints tested &amp; operational</text>
      </g>
      
      <!-- Modules -->
      <g transform="translate(900, 60)">
        <rect width="350" height="180" rx="8" class="highlight" />
        <text x="175" y="25" class="heading" text-anchor="middle">📦 Modules Enabled</text>
        <text x="20" y="50" class="text-small">• Mab_CheckoutCustomization ✅</text>
        <text x="20" y="68" class="text-small">• Mab_YalidineCarrier ✅</text>
        <text x="20" y="86" class="text-small">• Mab_SourceSelector ✅</text>
        <text x="20" y="104" class="text-small">• Amasty_CheckoutCore ✅</text>
        <text x="20" y="122" class="text-small">• Amasty_Storepickup ✅</text>
        <text x="20" y="140" class="text-small">✅ Conflicts resolved</text>
        <text x="20" y="158" class="text-small">✅ All tests passed (9/9)</text>
      </g>
    </g>
    
    <!-- Footer -->
    <g id="footer" transform="translate(0, 3140)">
      <rect x="50" y="0" width="1300" height="40" rx="20" fill="url(#successGradient)" />
      <text x="700" y="27" class="heading" text-anchor="middle" fill="white">🎉 PRODUCTION READY - 95% Confidence - Manual Testing Pending</text>
    </g>
    
  </g>
  
  <!-- Legend -->
  <g transform="translate(1100, 160)">
    <rect width="280" height="340" rx="8" class="box" />
    <text x="140" y="25" class="heading" text-anchor="middle">LEGEND</text>
    
    <rect x="15" y="40" width="30" height="20" class="highlight" />
    <text x="55" y="54" class="text-small">Main Flow</text>
    
    <rect x="15" y="70" width="30" height="20" class="success" />
    <text x="55" y="84" class="text-small">Completed</text>
    
    <rect x="15" y="100" width="30" height="20" class="yalidine" />
    <text x="55" y="114" class="text-small">Yalidine Path</text>
    
    <rect x="15" y="130" width="30" height="20" class="pickup" />
    <text x="55" y="144" class="text-small">Pickup Path</text>
    
    <rect x="15" y="160" width="30" height="20" class="database" />
    <text x="55" y="174" class="text-small">Database</text>
    
    <rect x="15" y="190" width="30" height="20" class="api" />
    <text x="55" y="204" class="text-small">API Call</text>
    
    <rect x="15" y="220" width="30" height="20" class="admin" />
    <text x="55" y="234" class="text-small">Admin/Future</text>
    
    <rect x="15" y="250" width="30" height="20" class="webhook" />
    <text x="55" y="264" class="text-small">Webhook</text>
    
    <rect x="155" y="250" width="30" height="20" class="validation" />
    <text x="195" y="264" class="text-small">Validation</text>
    
    <rect x="15" y="285" width="60" height="18" rx="9" class="badge-new" />
    <text x="45" y="298" class="badge" text-anchor="middle" font-size="10">NEW</text>
    
    <rect x="85" y="285" width="60" height="18" rx="9" class="badge-fixed" />
    <text x="115" y="298" class="badge" text-anchor="middle" font-size="10">FIXED</text>
    
    <rect x="155" y="285" width="100" height="18" rx="9" class="badge-enhanced" />
    <text x="205" y="298" class="badge" text-anchor="middle" font-size="10">ENHANCED</text>
    
    <text x="140" y="320" class="text-small" text-anchor="middle" font-weight="bold">Build: 2026-03-11</text>
  </g>
  
  <!-- Version Info -->
  <text x="700" y="3180" class="version" text-anchor="middle">Version 4.9.0 Enhanced | Developer: Mounir | Date: 2026-03-11 20:54 UTC | Status: Production Ready ✅</text>
  <text x="700" y="3195" class="version" text-anchor="middle">v4.9.0: Quote sync fix | Body mode classes | Debounced fees | Cached AJAX | SQL fix | Data flow diagram</text>
  
</svg>